<svg width="251" height="344" viewBox="0 0 251 344" fill="none" xmlns="http://www.w3.org/2000/svg">
<path d="M0 39.9337V274.403C0 283.993 5.80706 292.589 14.4293 295.861C32.2784 302.634 47.2008 308.247 59.6884 312.943C118.731 335.15 125.5 344 125.5 344C125.5 344 132.269 335.15 191.312 312.943C203.799 308.247 218.722 302.634 236.571 295.861C245.193 292.589 251 283.993 251 274.403V39.9337C225.9 39.9337 223.717 28.524 231.357 22.8192C231.357 22.8192 167.286 0 125.5 0C83.7138 0 19.6435 22.8192 19.6435 22.8192C27.2826 28.524 25.1 39.9337 0 39.9337Z" fill="#C4C4C4"/>
</svg>
